<svg id="Layer_1" data-name="Layer 1" xmlns="http://www.w3.org/2000/svg" viewBox="0 0 199 50"><defs><style>.cls-1{fill:#1a8dff;}</style></defs><title>sunfox_logo_original</title><path class="cls-1" d="M186.42,37C184,33.17,181.5,29.37,179,25.61l-.37-.55a1.46,1.46,0,0,1,.35-1.46c2.54-3.38,5-6.82,7.5-10.21S191.1,6.1,196,5.51a5.37,5.37,0,0,0-2.54-.32c-3.78.4-6.39,2.62-8.54,5.47-2.57,3.41-5,6.89-7.5,10.39-.48.69-.78.79-1.12.46l-.37-.58c-1-1.59-2-3.13-3-4.71-.44-.69-1.09-1.3-1-2.24s.9-1.24,1.66-1.67h-15a6.84,6.84,0,0,1,4.86,3.49c2.05,3.23,4.13,6.45,6.26,9.63a1.5,1.5,0,0,1,0,2.06c-2.54,3.38-5,6.82-7.5,10.21s-4.62,7.29-9.52,7.88a5.37,5.37,0,0,0,2.54.32c3.78-.4,6.39-2.62,8.54-5.47,2.57-3.41,5-6.89,7.5-10.39.66-.94,1-.79,1.52.06,1.28,2,2.63,4,3.94,6,.42.65.93,1.28.68,2.16s-1,1.15-1.84,1.46h15.32A6.2,6.2,0,0,1,186.42,37Z"/><path class="cls-1" d="M161.09,20.46c-2.15-5.61-8.77-9.33-15-8.86-5.18.39-8.09,4.62-6.55,9.29a7.33,7.33,0,0,0,.83,1.69h0a13,13,0,0,1-.15-3.67h0v0a5.3,5.3,0,0,1,5.67-5.3,6.37,6.37,0,0,1,5.57,3.52,17.24,17.24,0,0,1,2,8.05v1.46h0A16.58,16.58,0,0,1,151.73,34c-3.42,6.08-11.14,6.2-14.7.22a16.84,16.84,0,0,1-2.15-7.88q0-1.61,0-3.23h0a19.58,19.58,0,0,1,3.51-11,10.27,10.27,0,0,0-1.28.16c-5.7,1.58-9.5,5.12-10.57,11-1,5.71.67,10.58,5.67,13.82,6.14,4,12.88,4.25,19.64,2.15C161.3,36.3,163.88,27.74,161.09,20.46Z"/><path class="cls-1" d="M121.2,21.85c-1.93,3.65-4.1,3.47-4.1,3.47h0c-.19,0-4.13,0-7.43.05-.7,0-.95-.28-.95-1q0-4.64,0-9.29c0-.69.21-1,.93-1,1.82,0,7.87-.06,9.69,0a4.59,4.59,0,0,1,4.44,4.15c0,.31-.15.69.26.93V11.88c-3.41.36-11.05.41-14.47.39-3.85,0-7.55.09-11.61,0,2.55.9,2.85,1.33,2.85,3.9,0,6.49,0,13,0,19.45,0,2.09-.36,3.72-2.7,4.19h13.38c-2.2-.7-2.77-1.39-2.78-3.6,0-2.6,0-5.12,0-7.72,0-.94.22-1.29,1.23-1.26,2.29.06,3.24,0,6,0h1.18s2.17-.18,4.1,3.47c0,0,0,0,0-.06s0-.29,0-.43h0c0-2.79,0-5.58,0-8.36C121.2,21.89,121.2,21.87,121.2,21.85Z"/><path class="cls-1" d="M102.36,44.95a10.24,10.24,0,0,1-1.2-.38,9.47,9.47,0,0,1-2.22-1.14h0a35.64,35.64,0,0,1-5.46-4.91,2.66,2.66,0,0,1-.81-2.09c0-6.68,0-13.36,0-20,0-2.87.22-3.19,2.75-4.08H81.88c1.45.31,2.61.9,2.87,2.52l-.06,14.12h0c-.71,0-1-.6-1.37-1Q76,20.4,68.7,12.83a23.63,23.63,0,0,0-5.52-4.4h0l0,0a17.15,17.15,0,0,0-1.8-.81q.19-.34.42-.67a8.18,8.18,0,0,1,4.56-3.3,5.8,5.8,0,0,0-.68,0A9.37,9.37,0,0,0,59.18,7c-4-.74-6,1.28-6.22,1.58l0,0a9.65,9.65,0,0,1,2-.28h.92a9.35,9.35,0,0,1,1.74.28l.46.13a13.65,13.65,0,0,0-1.25,3.53h0a19.6,19.6,0,0,0-.25,3.49c0,2.9,0,5.8,0,8.7A68.82,68.82,0,0,1,56.37,32,6.75,6.75,0,0,1,51.68,38c-2.94,1-5.83.74-8.19-1.63-2-2-2.36-4.47-2.39-7.06,0-4.52,0-9,0-13.57,0-1.74.29-3.12,2.29-3.52H30.58c2.38.81,2.62,1.14,2.62,3.44q0,6.78,0,13.57c0,5.24,2.44,8.67,7.4,10.24A20.56,20.56,0,0,0,50.93,40c6.06-1.2,8.82-4.61,8.87-10.81,0-4.77,0-9.54,0-14.3,0-.49,0-1,0-1.48h0a13.26,13.26,0,0,1,.55-3.6,8.14,8.14,0,0,1,1.1.82h0a20.21,20.21,0,0,1,4.37,4.16q0,11.35,0,22.7h0c-.21,1.53-1.44,1.91-3,2.31h14c-2.54-.69-2.95-1.24-2.95-3.94,0-3.68,0-7.36,0-11,0-.46-.19-1,.2-1.39.58.05.81.54,1.13.88,5.57,5.74,11.1,11.53,16.71,17.23a16.65,16.65,0,0,0,7.31,4.68,8.53,8.53,0,0,0,6.92-.89A12.68,12.68,0,0,1,102.36,44.95Z"/><path class="cls-1" d="M23.43,25c-3.06-1.76-6.14-3.47-9.2-5.23-1.06-.61-1.93-1.39-1.8-2.79a3.18,3.18,0,0,1,2.13-2.77,8.88,8.88,0,0,1,6.06-.26,5,5,0,0,1,3.8,4.32c.32-1.79.52-3.54.77-5.29.08-.54,0-.84-.61-.83-3.68.05-7.34-.64-11-.24A7.73,7.73,0,0,0,6.8,22.05a9.12,9.12,0,0,0,4.34,5c2.68,1.63,5.44,3.14,8,4.89a5.07,5.07,0,0,1,2.44,5.31c-.44,2.42-2.06,3.71-4.33,4.29a10.14,10.14,0,0,1-5.23,0c-3.65-1-5.92-3.15-6.7-6.27v-.08c-.05-.22-.1-.44-.14-.67h0l0-.14a11.72,11.72,0,0,1-.13-2,19.75,19.75,0,0,1,.23-2.81h0a8.9,8.9,0,0,0-.34,8.65,8.12,8.12,0,0,0,2.48,3.08c4.26,3.09,8.9,3.27,13.71,1.64A10.94,10.94,0,0,0,27.35,38C30.14,33.17,28.57,28,23.43,25Z"/></svg>